solid OpenSCAD_Model
  facet normal -1 0 0
    outer loop
      vertex 0 0 0
      vertex 0 53.5 30
      vertex 0 53.5 0
    endloop
  endfacet
  facet normal -1 -0 0
    outer loop
      vertex 0 53.5 30
      vertex 0 0 0
      vertex 0 0 30
    endloop
  endfacet
  facet normal 0 0 1
    outer loop
      vertex 53.5 53.5 30
      vertex 52 52 30
      vertex 53.5 0 30
    endloop
  endfacet
  facet normal 0 0 1
    outer loop
      vertex 53.5 53.5 30
      vertex 1.5 52 30
      vertex 52 52 30
    endloop
  endfacet
  facet normal 0 0 1
    outer loop
      vertex 1.5 52 30
      vertex 0 53.5 30
      vertex 1.5 1.5 30
    endloop
  endfacet
  facet normal -0 0 1
    outer loop
      vertex 0 53.5 30
      vertex 1.5 52 30
      vertex 53.5 53.5 30
    endloop
  endfacet
  facet normal -0 0 1
    outer loop
      vertex 52 1.5 30
      vertex 53.5 0 30
      vertex 52 52 30
    endloop
  endfacet
  facet normal -0 0 1
    outer loop
      vertex 1.5 1.5 30
      vertex 53.5 0 30
      vertex 52 1.5 30
    endloop
  endfacet
  facet normal 0 0 1
    outer loop
      vertex 1.5 1.5 30
      vertex 0 0 30
      vertex 53.5 0 30
    endloop
  endfacet
  facet normal 0 0 1
    outer loop
      vertex 0 0 30
      vertex 1.5 1.5 30
      vertex 0 53.5 30
    endloop
  endfacet
  facet normal 1 -0 0
    outer loop
      vertex 53.5 0 30
      vertex 53.5 53.5 0
      vertex 53.5 53.5 30
    endloop
  endfacet
  facet normal 1 0 0
    outer loop
      vertex 53.5 53.5 0
      vertex 53.5 0 30
      vertex 53.5 0 0
    endloop
  endfacet
  facet normal 0 1 -0
    outer loop
      vertex 53.5 53.5 0
      vertex 0 53.5 30
      vertex 53.5 53.5 30
    endloop
  endfacet
  facet normal 0 1 0
    outer loop
      vertex 0 53.5 30
      vertex 53.5 53.5 0
      vertex 0 53.5 0
    endloop
  endfacet
  facet normal 0 0 -1
    outer loop
      vertex 53.5 0 0
      vertex 52 1.5 0
      vertex 53.5 53.5 0
    endloop
  endfacet
  facet normal 0 0 -1
    outer loop
      vertex 53.5 0 0
      vertex 1.5 1.5 0
      vertex 52 1.5 0
    endloop
  endfacet
  facet normal -0 0 -1
    outer loop
      vertex 1.5 1.5 0
      vertex 0 0 0
      vertex 1.5 52 0
    endloop
  endfacet
  facet normal 0 0 -1
    outer loop
      vertex 0 0 0
      vertex 1.5 1.5 0
      vertex 53.5 0 0
    endloop
  endfacet
  facet normal 0 0 -1
    outer loop
      vertex 52 52 0
      vertex 53.5 53.5 0
      vertex 52 1.5 0
    endloop
  endfacet
  facet normal 0 0 -1
    outer loop
      vertex 1.5 52 0
      vertex 53.5 53.5 0
      vertex 52 52 0
    endloop
  endfacet
  facet normal 0 0 -1
    outer loop
      vertex 1.5 52 0
      vertex 0 53.5 0
      vertex 53.5 53.5 0
    endloop
  endfacet
  facet normal 0 0 -1
    outer loop
      vertex 0 53.5 0
      vertex 1.5 52 0
      vertex 0 0 0
    endloop
  endfacet
  facet normal 0 -1 0
    outer loop
      vertex 0 0 0
      vertex 53.5 0 30
      vertex 0 0 30
    endloop
  endfacet
  facet normal 0 -1 -0
    outer loop
      vertex 53.5 0 30
      vertex 0 0 0
      vertex 53.5 0 0
    endloop
  endfacet
  facet normal 1 0 0
    outer loop
      vertex 1.5 52 30
      vertex 1.5 40 15.5
      vertex 1.5 52 15.5
    endloop
  endfacet
  facet normal 1 0 0
    outer loop
      vertex 1.5 40 15.5
      vertex 1.5 13.5 15.5
      vertex 1.5 40 14.5
    endloop
  endfacet
  facet normal 1 0 0
    outer loop
      vertex 1.5 52 30
      vertex 1.5 13.5 15.5
      vertex 1.5 40 15.5
    endloop
  endfacet
  facet normal 1 -0 0
    outer loop
      vertex 1.5 1.5 30
      vertex 1.5 13.5 15.5
      vertex 1.5 52 30
    endloop
  endfacet
  facet normal 1 0 0
    outer loop
      vertex 1.5 13.5 15.5
      vertex 1.5 1.5 30
      vertex 1.5 1.5 15.5
    endloop
  endfacet
  facet normal 1 -0 0
    outer loop
      vertex 1.5 40 14.5
      vertex 1.5 52 0
      vertex 1.5 52 14.5
    endloop
  endfacet
  facet normal 1 0 0
    outer loop
      vertex 1.5 13.5 14.5
      vertex 1.5 40 14.5
      vertex 1.5 13.5 15.5
    endloop
  endfacet
  facet normal 1 0 0
    outer loop
      vertex 1.5 40 14.5
      vertex 1.5 13.5 14.5
      vertex 1.5 52 0
    endloop
  endfacet
  facet normal 1 0 0
    outer loop
      vertex 1.5 1.5 0
      vertex 1.5 13.5 14.5
      vertex 1.5 1.5 14.5
    endloop
  endfacet
  facet normal 1 0 0
    outer loop
      vertex 1.5 13.5 14.5
      vertex 1.5 1.5 0
      vertex 1.5 52 0
    endloop
  endfacet
  facet normal -1 0 0
    outer loop
      vertex 52 52 0
      vertex 52 40 14.5
      vertex 52 52 14.5
    endloop
  endfacet
  facet normal -1 0 0
    outer loop
      vertex 52 40 14.5
      vertex 52 13.5 14.5
      vertex 52 40 15.5
    endloop
  endfacet
  facet normal -1 0 0
    outer loop
      vertex 52 52 0
      vertex 52 13.5 14.5
      vertex 52 40 14.5
    endloop
  endfacet
  facet normal -1 0 0
    outer loop
      vertex 52 1.5 0
      vertex 52 13.5 14.5
      vertex 52 52 0
    endloop
  endfacet
  facet normal -1 -0 0
    outer loop
      vertex 52 13.5 14.5
      vertex 52 1.5 0
      vertex 52 1.5 14.5
    endloop
  endfacet
  facet normal -1 0 0
    outer loop
      vertex 52 40 15.5
      vertex 52 52 30
      vertex 52 52 15.5
    endloop
  endfacet
  facet normal -1 0 0
    outer loop
      vertex 52 13.5 15.5
      vertex 52 40 15.5
      vertex 52 13.5 14.5
    endloop
  endfacet
  facet normal -1 0 0
    outer loop
      vertex 52 40 15.5
      vertex 52 13.5 15.5
      vertex 52 52 30
    endloop
  endfacet
  facet normal -1 0 0
    outer loop
      vertex 52 1.5 30
      vertex 52 13.5 15.5
      vertex 52 1.5 15.5
    endloop
  endfacet
  facet normal -1 0 0
    outer loop
      vertex 52 13.5 15.5
      vertex 52 1.5 30
      vertex 52 52 30
    endloop
  endfacet
  facet normal 0 1 -0
    outer loop
      vertex 52 1.5 0
      vertex 40 1.5 14.5
      vertex 52 1.5 14.5
    endloop
  endfacet
  facet normal 0 1 0
    outer loop
      vertex 40 1.5 14.5
      vertex 52 1.5 0
      vertex 13.5 1.5 14.5
    endloop
  endfacet
  facet normal 0 1 0
    outer loop
      vertex 1.5 1.5 0
      vertex 13.5 1.5 14.5
      vertex 52 1.5 0
    endloop
  endfacet
  facet normal 0 1 0
    outer loop
      vertex 13.5 1.5 14.5
      vertex 1.5 1.5 0
      vertex 1.5 1.5 14.5
    endloop
  endfacet
  facet normal 0 1 -0
    outer loop
      vertex 40 1.5 14.5
      vertex 13.5 1.5 15.5
      vertex 40 1.5 15.5
    endloop
  endfacet
  facet normal 0 1 0
    outer loop
      vertex 13.5 1.5 15.5
      vertex 40 1.5 14.5
      vertex 13.5 1.5 14.5
    endloop
  endfacet
  facet normal 0 1 0
    outer loop
      vertex 40 1.5 15.5
      vertex 52 1.5 30
      vertex 52 1.5 15.5
    endloop
  endfacet
  facet normal 0 1 0
    outer loop
      vertex 52 1.5 30
      vertex 40 1.5 15.5
      vertex 1.5 1.5 30
    endloop
  endfacet
  facet normal 0 1 -0
    outer loop
      vertex 13.5 1.5 15.5
      vertex 1.5 1.5 30
      vertex 40 1.5 15.5
    endloop
  endfacet
  facet normal 0 1 0
    outer loop
      vertex 1.5 1.5 30
      vertex 13.5 1.5 15.5
      vertex 1.5 1.5 15.5
    endloop
  endfacet
  facet normal 0 -1 0
    outer loop
      vertex 1.5 52 0
      vertex 13.5 52 14.5
      vertex 1.5 52 14.5
    endloop
  endfacet
  facet normal 0 -1 -0
    outer loop
      vertex 13.5 52 14.5
      vertex 1.5 52 0
      vertex 40 52 14.5
    endloop
  endfacet
  facet normal 0 -1 0
    outer loop
      vertex 52 52 0
      vertex 40 52 14.5
      vertex 1.5 52 0
    endloop
  endfacet
  facet normal 0 -1 0
    outer loop
      vertex 40 52 14.5
      vertex 52 52 0
      vertex 52 52 14.5
    endloop
  endfacet
  facet normal 0 -1 0
    outer loop
      vertex 13.5 52 14.5
      vertex 40 52 15.5
      vertex 13.5 52 15.5
    endloop
  endfacet
  facet normal 0 -1 -0
    outer loop
      vertex 40 52 15.5
      vertex 13.5 52 14.5
      vertex 40 52 14.5
    endloop
  endfacet
  facet normal 0 -1 0
    outer loop
      vertex 13.5 52 15.5
      vertex 1.5 52 30
      vertex 1.5 52 15.5
    endloop
  endfacet
  facet normal 0 -1 0
    outer loop
      vertex 1.5 52 30
      vertex 13.5 52 15.5
      vertex 52 52 30
    endloop
  endfacet
  facet normal 0 -1 0
    outer loop
      vertex 40 52 15.5
      vertex 52 52 30
      vertex 13.5 52 15.5
    endloop
  endfacet
  facet normal 0 -1 -0
    outer loop
      vertex 52 52 30
      vertex 40 52 15.5
      vertex 52 52 15.5
    endloop
  endfacet
  facet normal 0 0 -1
    outer loop
      vertex 13.5 1.5 14.5
      vertex 1.5 1.5 14.5
      vertex 1.5 13.5 14.5
    endloop
  endfacet
  facet normal 0.707107 0.707107 0
    outer loop
      vertex 13.5 1.5 15.5
      vertex 1.5 13.5 14.5
      vertex 1.5 13.5 15.5
    endloop
  endfacet
  facet normal 0.707107 0.707107 0
    outer loop
      vertex 1.5 13.5 14.5
      vertex 13.5 1.5 15.5
      vertex 13.5 1.5 14.5
    endloop
  endfacet
  facet normal 0 0 1
    outer loop
      vertex 1.5 13.5 15.5
      vertex 1.5 1.5 15.5
      vertex 13.5 1.5 15.5
    endloop
  endfacet
  facet normal 0 0 -1
    outer loop
      vertex 52 1.5 14.5
      vertex 40 1.5 14.5
      vertex 52 13.5 14.5
    endloop
  endfacet
  facet normal -0.707107 0.707107 0
    outer loop
      vertex 40 1.5 14.5
      vertex 52 13.5 15.5
      vertex 52 13.5 14.5
    endloop
  endfacet
  facet normal -0.707107 0.707107 0
    outer loop
      vertex 52 13.5 15.5
      vertex 40 1.5 14.5
      vertex 40 1.5 15.5
    endloop
  endfacet
  facet normal 0 0 1
    outer loop
      vertex 52 13.5 15.5
      vertex 40 1.5 15.5
      vertex 52 1.5 15.5
    endloop
  endfacet
  facet normal 0 0 -1
    outer loop
      vertex 52 40 14.5
      vertex 40 52 14.5
      vertex 52 52 14.5
    endloop
  endfacet
  facet normal -0.707107 -0.707107 0
    outer loop
      vertex 52 40 14.5
      vertex 40 52 15.5
      vertex 40 52 14.5
    endloop
  endfacet
  facet normal -0.707107 -0.707107 0
    outer loop
      vertex 40 52 15.5
      vertex 52 40 14.5
      vertex 52 40 15.5
    endloop
  endfacet
  facet normal 0 0 1
    outer loop
      vertex 52 52 15.5
      vertex 40 52 15.5
      vertex 52 40 15.5
    endloop
  endfacet
  facet normal -0 0 -1
    outer loop
      vertex 13.5 52 14.5
      vertex 1.5 40 14.5
      vertex 1.5 52 14.5
    endloop
  endfacet
  facet normal 0.707107 -0.707107 0
    outer loop
      vertex 1.5 40 15.5
      vertex 13.5 52 14.5
      vertex 13.5 52 15.5
    endloop
  endfacet
  facet normal 0.707107 -0.707107 0
    outer loop
      vertex 13.5 52 14.5
      vertex 1.5 40 15.5
      vertex 1.5 40 14.5
    endloop
  endfacet
  facet normal -0 0 1
    outer loop
      vertex 1.5 52 15.5
      vertex 1.5 40 15.5
      vertex 13.5 52 15.5
    endloop
  endfacet
endsolid OpenSCAD_Model
